<?xml version="1.0" standalone="no"?>
<!DOCTYPE svg PUBLIC "-//W3C//DTD SVG 20010904//EN"
 "http://www.w3.org/TR/2001/REC-SVG-20010904/DTD/svg10.dtd">
<svg version="1.0" xmlns="http://www.w3.org/2000/svg"
 width="225.000000pt" height="225.000000pt" viewBox="0 0 225.000000 225.000000"
 preserveAspectRatio="xMidYMid meet">

<g transform="translate(0.000000,225.000000) scale(0.100000,-0.100000)"
fill="#000000" stroke="none">
<path d="M942 2089 c-134 -138 -157 -166 -157 -192 0 -25 7 -36 32 -52 31 -19
32 -22 33 -90 l0 -70 -324 -243 c-190 -143 -339 -247 -360 -253 -56 -16 -73
-67 -36 -107 16 -17 32 -22 70 -22 l50 0 0 -465 0 -465 -50 0 c-80 0 -117 -57
-70 -108 l21 -22 973 0 973 0 21 23 c49 52 13 107 -68 107 l-50 0 0 465 0 465
50 0 c38 0 54 5 70 22 37 40 20 91 -35 107 -21 5 -173 112 -360 253 l-325 243
0 70 c0 67 1 71 30 87 70 40 58 64 -124 251 -123 126 -159 157 -181 157 -21 0
-57 -31 -183 -161z m328 -314 l0 -55 -145 0 -145 0 0 55 0 55 145 0 145 0 0
-55z m-530 -1000 l0 -285 -180 0 -180 0 0 285 0 285 180 0 180 0 0 -285z m640
-180 l0 -465 -255 0 -255 0 0 465 0 465 255 0 255 0 0 -465z m490 180 l0 -285
-180 0 -180 0 0 285 0 285 180 0 180 0 0 -285z m-1370 -530 l0 -115 -60 0 -60
0 0 115 0 115 60 0 60 0 0 -115z m240 0 l0 -115 -55 0 -55 0 0 115 0 115 55 0
55 0 0 -115z m880 0 l0 -115 -55 0 -55 0 0 115 0 115 55 0 55 0 0 -115z m250
0 l0 -115 -60 0 -60 0 0 108 c0 60 3 112 7 115 3 4 30 7 60 7 l53 0 0 -115z"/>
</g>
</svg>
